<?xml version="1.0" encoding="UTF-8"?>
<level>
  <owner>Fistachka</owner>
  <repo>obezyanki2</repo>
  <version>v1.0.6</version>
  <next number="1" owner="Fistachka" repo="dedmoroz"/>
  <readme>
    <ru>d154781462726ad040f84f772e1bf70e5c8273c0b993b539a6971213b225ec8e</ru>
    <en>8c5133473ba89cb3acb3dc418f3df1f133c0e6dd5daa92fd78ad06aa9f122eef</en>
  </readme>
  <license>b1b99f5538d1fd3702219bff50c665196dfa42f6ee755c37fe41a6178d6bc6e5</license>
  <exercise number="1">
    <scale>major</scale>
    <bpm>127</bpm>
    <lowestNote>58</lowestNote>
    <tonalities>8</tonalities>
    <video name="9t.mp4" size="841568" type="video/mp4" volume="1">33d820381c470af98a5e490b210126f5daf995170dc18b4ab6a3d8d35dd94d17</video>
    <notes>
      <note number="1" values="488" ticks="39" durationTicks="61" ppq="96" velocity="0.843"/>
      <note number="2" values="488" ticks="109" durationTicks="24" ppq="96" velocity="0.906"/>
      <note number="3" values="488" ticks="134" durationTicks="66" ppq="96" velocity="0.843"/>
      <note number="4" values="488" ticks="207" durationTicks="25" ppq="96" velocity="0.906"/>
      <note number="5" values="488" ticks="232" durationTicks="66" ppq="96" velocity="0.906"/>
      <note number="6" values="488" ticks="302" durationTicks="25" ppq="96" velocity="0.906"/>
      <note number="7" values="388" ticks="326" durationTicks="56" ppq="96" velocity="0.906"/>
      <note number="8" values="288" ticks="390" durationTicks="27" ppq="96" velocity="0.906"/>
    </notes>
  </exercise>
  <exercise number="2">
    <scale>major</scale>
    <bpm>127</bpm>
    <lowestNote>58</lowestNote>
    <tonalities>8</tonalities>
    <video name="10t.mp4" size="831185" type="video/mp4" volume="1">9398a24e01b032e6fdebe4014f229de59a6c4f68294cd2867782df9ab5b7c332</video>
    <notes>
      <note number="1" values="488" ticks="35" durationTicks="61" ppq="96" velocity="0.843"/>
      <note number="2" values="488" ticks="105" durationTicks="24" ppq="96" velocity="0.906"/>
      <note number="3" values="488" ticks="130" durationTicks="66" ppq="96" velocity="0.843"/>
      <note number="4" values="488" ticks="203" durationTicks="25" ppq="96" velocity="0.906"/>
      <note number="5" values="488" ticks="228" durationTicks="66" ppq="96" velocity="0.906"/>
      <note number="6" values="488" ticks="298" durationTicks="25" ppq="96" velocity="0.906"/>
      <note number="7" values="388" ticks="322" durationTicks="56" ppq="96" velocity="0.906"/>
      <note number="8" values="288" ticks="386" durationTicks="27" ppq="96" velocity="0.906"/>
    </notes>
  </exercise>
  <exercise number="3">
    <scale>major</scale>
    <bpm>127</bpm>
    <lowestNote>58</lowestNote>
    <tonalities>8</tonalities>
    <video name="11t.mp4" size="692789" type="video/mp4" volume="1">cc6c36d4a3001217e4c51f33a8ba9a2a25db2ab733e6dbb89442b55b936b5913</video>
    <notes>
      <note number="1" values="388" ticks="23" durationTicks="61" ppq="96" velocity="0.843"/>
      <note number="2" values="388" ticks="93" durationTicks="21" ppq="96" velocity="0.906"/>
      <note number="3" values="388" ticks="118" durationTicks="66" ppq="96" velocity="0.843"/>
      <note number="4" values="388" ticks="191" durationTicks="21" ppq="96" velocity="0.906"/>
      <note number="5" values="388" ticks="216" durationTicks="66" ppq="96" velocity="0.906"/>
      <note number="6" values="388" ticks="286" durationTicks="25" ppq="96" velocity="0.906"/>
      <note number="7" values="288" ticks="310" durationTicks="56" ppq="96" velocity="0.906"/>
      <note number="8" values="188" ticks="374" durationTicks="27" ppq="96" velocity="0.906"/>
    </notes>
  </exercise>
  <exercise number="4">
    <scale>major</scale>
    <bpm>127</bpm>
    <lowestNote>58</lowestNote>
    <tonalities>8</tonalities>
    <video name="12t.mp4" size="781557" type="video/mp4" volume="1">75131ebd93e2a4c57b10504baa014dc221c18f55a56529dcbb908e2f16621bd0</video>
    <notes>
      <note number="1" values="78" ticks="33" durationTicks="61" ppq="96" velocity="0.843"/>
      <note number="2" values="188" ticks="103" durationTicks="24" ppq="96" velocity="0.906"/>
      <note number="3" values="288" ticks="128" durationTicks="66" ppq="96" velocity="0.843"/>
      <note number="4" values="388" ticks="201" durationTicks="25" ppq="96" velocity="0.906"/>
      <note number="5" values="488" ticks="226" durationTicks="66" ppq="96" velocity="0.906"/>
      <note number="6" values="588" ticks="296" durationTicks="15" ppq="96" velocity="0.906"/>
      <note number="7" values="588" ticks="320" durationTicks="56" ppq="96" velocity="0.906"/>
    </notes>
  </exercise>
  <exercise number="5">
    <scale>major</scale>
    <bpm>127</bpm>
    <lowestNote>38</lowestNote>
    <tonalities>8</tonalities>
    <video name="13t.mp4" size="758989" type="video/mp4" volume="1">fb5ae2c6539d46e6fb88004203eb4cd98187f22cebe32621e075f92023215a82</video>
    <notes>
      <note number="1" values="38" ticks="23" durationTicks="61" ppq="96" velocity="0.843"/>
      <note number="2" values="38" ticks="93" durationTicks="24" ppq="96" velocity="0.906"/>
      <note number="3" values="58" ticks="118" durationTicks="66" ppq="96" velocity="0.85"/>
      <note number="4" values="58" ticks="191" durationTicks="25" ppq="96" velocity="0.906"/>
      <note number="5" values="388" ticks="216" durationTicks="66" ppq="96" velocity="0.906"/>
      <note number="6" values="388" ticks="286" durationTicks="25" ppq="96" velocity="0.906"/>
      <note number="7" values="188" ticks="310" durationTicks="56" ppq="96" velocity="0.906"/>
      <note number="8" values="188" ticks="371" durationTicks="27" ppq="96" velocity="0.906"/>
    </notes>
  </exercise>
  <exercise number="6">
    <scale>major</scale>
    <bpm>127</bpm>
    <lowestNote>38</lowestNote>
    <tonalities>8</tonalities>
    <video name="14t.mp4" size="754947" type="video/mp4" volume="1">27ebb4911d79e6b2a204f6adbfd574d1f86f82307bc3332048090ff47a7daf1d</video>
    <notes>
      <note number="1" values="288" ticks="31" durationTicks="61" ppq="96" velocity="0.843"/>
      <note number="2" values="288" ticks="101" durationTicks="24" ppq="96" velocity="0.906"/>
      <note number="3" values="78" ticks="126" durationTicks="66" ppq="96" velocity="0.843"/>
      <note number="4" values="78" ticks="199" durationTicks="25" ppq="96" velocity="0.906"/>
      <note number="5" values="188" ticks="224" durationTicks="66" ppq="96" velocity="0.906"/>
      <note number="6" values="388" ticks="294" durationTicks="25" ppq="96" velocity="0.906"/>
      <note number="7" values="58" ticks="318" durationTicks="56" ppq="96" velocity="0.906"/>
      <note number="8" values="58" ticks="379" durationTicks="27" ppq="96" velocity="0.906"/>
    </notes>
  </exercise>
  <exercise number="7">
    <scale>major</scale>
    <bpm>127</bpm>
    <lowestNote>38</lowestNote>
    <tonalities>8</tonalities>
    <video name="15t.mp4" size="861573" type="video/mp4" volume="1">a9bfde10db85e765be455fd66595b9615f9b24189f2713520948baccfa28e197</video>
    <notes>
      <note number="1" values="48" ticks="25" durationTicks="61" ppq="96" velocity="0.843"/>
      <note number="2" values="48" ticks="95" durationTicks="24" ppq="96" velocity="0.906"/>
      <note number="3" values="188" ticks="120" durationTicks="66" ppq="96" velocity="0.843"/>
      <note number="4" values="188" ticks="193" durationTicks="25" ppq="96" velocity="0.906"/>
      <note number="5" values="58" ticks="218" durationTicks="66" ppq="96" velocity="0.906"/>
      <note number="6" values="58" ticks="288" durationTicks="25" ppq="96" velocity="0.906"/>
      <note number="7" values="188" ticks="312" durationTicks="56" ppq="96" velocity="0.906"/>
      <note number="8" values="188" ticks="375" durationTicks="27" ppq="96" velocity="0.906"/>
    </notes>
  </exercise>
  <exercise number="8">
    <scale>major</scale>
    <bpm>127</bpm>
    <lowestNote>38</lowestNote>
    <tonalities>8</tonalities>
    <video name="16t.mp4" size="780744" type="video/mp4" volume="1">0cbe29dfd39d621bd8d3c86b96695e56da87749bf2bbb967e32d536400875983</video>
    <notes>
      <note number="1" values="188" ticks="25" durationTicks="61" ppq="96" velocity="0.843"/>
      <note number="2" values="188" ticks="95" durationTicks="24" ppq="96" velocity="0.929"/>
      <note number="3" values="188" ticks="120" durationTicks="66" ppq="96" velocity="0.843"/>
      <note number="4" values="188" ticks="193" durationTicks="25" ppq="96" velocity="0.906"/>
      <note number="5" values="78" ticks="218" durationTicks="66" ppq="96" velocity="0.906"/>
      <note number="6" values="288" ticks="288" durationTicks="25" ppq="96" velocity="0.906"/>
      <note number="7" values="188" ticks="312" durationTicks="56" ppq="96" velocity="0.906"/>
    </notes>
  </exercise>
</level>
